<svg width="512" height="452" viewBox="0 0 512 452" xmlns="http://www.w3.org/2000/svg"><path d="M370.61.44A141.25 141.25 0 00256 59.11C224.076 14.8 169.482-7.157 115.769 2.713c-53.714 9.87-96.936 49.8-111.022 102.566C-9.34 158.044 8.232 214.203 49.88 249.53c.262.351.546.685.85 1L249 448.81a9.34 9.34 0 0013.24 0L458.89 252.2c46.913-37.485 65.019-100.522 45.148-157.19C484.168 38.345 430.66.419 370.61.44zM245.23 207.13c-29.093 46.27-85.292 67.704-137.809 52.563C54.904 244.55 18.744 196.486 18.75 141.83c-.023-54.66 36.134-102.736 88.654-117.88 52.52-15.144 108.722 6.3 137.806 52.58a141.17 141.17 0 000 130.6h.02z"/></svg>